<svg width="496" height="269" viewBox="0 0 496 269" fill="none" xmlns="http://www.w3.org/2000/svg">
<g filter="url(#filter0_dddd_17_208)">
<path d="M58.6 99L48.3 29H59.1L67.5 91.7H69.1L79.9 29H98.8L109.6 91.7H111.2L119.5 29H130.3L120 99H101.1L90.1 35.4H88.5L77.6 99H58.6ZM163.395 100.4C158.462 100.4 154.062 99.4 150.195 97.4C146.395 95.3333 143.395 92.4 141.195 88.6C138.995 84.8 137.895 80.3 137.895 75.1V73.6C137.895 68.4 138.995 63.9333 141.195 60.2C143.395 56.4 146.395 53.4667 150.195 51.4C154.062 49.3333 158.462 48.3 163.395 48.3C168.329 48.3 172.729 49.3333 176.595 51.4C180.462 53.4667 183.495 56.4 185.695 60.2C187.895 63.9333 188.995 68.4 188.995 73.6V75.1C188.995 80.3 187.895 84.8 185.695 88.6C183.495 92.4 180.462 95.3333 176.595 97.4C172.729 99.4 168.329 100.4 163.395 100.4ZM163.395 91.2C167.929 91.2 171.595 89.7667 174.395 86.9C177.262 83.9667 178.695 79.9333 178.695 74.8V73.9C178.695 68.7667 177.295 64.7667 174.495 61.9C171.695 58.9667 167.995 57.5 163.395 57.5C158.929 57.5 155.262 58.9667 152.395 61.9C149.595 64.7667 148.195 68.7667 148.195 73.9V74.8C148.195 79.9333 149.595 83.9667 152.395 86.9C155.262 89.7667 158.929 91.2 163.395 91.2ZM201.819 99V49.7H211.919V55.5H213.519C214.319 53.4333 215.585 51.9333 217.319 51C219.119 50 221.319 49.5 223.919 49.5H229.819V58.8H223.519C220.185 58.8 217.452 59.7333 215.319 61.6C213.185 63.4 212.119 66.2 212.119 70V99H201.819ZM240.491 99V29H250.791V68.9H252.391L271.791 49.7H285.491L260.591 73.6L286.291 99H272.691L252.391 78.5H250.791V99H240.491ZM295.569 99V29H305.869V99H295.569ZM321.155 99V49.7H331.455V99H321.155ZM326.355 43C324.355 43 322.655 42.3667 321.255 41.1C319.921 39.7667 319.255 38.0667 319.255 36C319.255 33.9333 319.921 32.2667 321.255 31C322.655 29.6667 324.355 29 326.355 29C328.421 29 330.121 29.6667 331.455 31C332.788 32.2667 333.455 33.9333 333.455 36C333.455 38.0667 332.788 39.7667 331.455 41.1C330.121 42.3667 328.421 43 326.355 43ZM346.741 99V49.7H356.841V57.1H358.441C359.374 55.1 361.041 53.2333 363.441 51.5C365.841 49.7667 369.407 48.9 374.141 48.9C377.874 48.9 381.174 49.7333 384.041 51.4C386.974 53.0667 389.274 55.4333 390.941 58.5C392.607 61.5 393.441 65.1333 393.441 69.4V99H383.141V70.2C383.141 65.9333 382.074 62.8 379.941 60.8C377.807 58.7333 374.874 57.7 371.141 57.7C366.874 57.7 363.441 59.1 360.841 61.9C358.307 64.7 357.041 68.7667 357.041 74.1V99H346.741ZM426.864 69.2C422.864 69.2 419.264 68.3333 416.064 66.6C412.931 64.8 410.431 62.3333 408.564 59.2C406.764 56.0667 405.864 52.4667 405.864 48.4C405.864 44.3333 406.764 40.7333 408.564 37.6C410.431 34.4667 412.931 32.0333 416.064 30.3C419.264 28.5 422.864 27.6 426.864 27.6C430.864 27.6 434.431 28.5 437.564 30.3C440.764 32.0333 443.264 34.4667 445.064 37.6C446.931 40.7333 447.864 44.3333 447.864 48.4C447.864 52.4667 446.931 56.0667 445.064 59.2C443.264 62.3333 440.764 64.8 437.564 66.6C434.431 68.3333 430.864 69.2 426.864 69.2ZM426.864 65.1C431.931 65.1 435.964 63.6 438.964 60.6C442.031 57.5333 443.564 53.4667 443.564 48.4C443.564 43.3333 442.031 39.3 438.964 36.3C435.964 33.2333 431.931 31.7 426.864 31.7C421.797 31.7 417.731 33.2333 414.664 36.3C411.597 39.3 410.064 43.3333 410.064 48.4C410.064 53.4667 411.597 57.5333 414.664 60.6C417.731 63.6 421.797 65.1 426.864 65.1ZM419.664 59.3V37.1H428.164C430.631 37.1 432.497 37.7 433.764 38.9C435.031 40.1 435.664 41.5333 435.664 43.2C435.664 44.4667 435.331 45.6 434.664 46.6C434.064 47.5333 433.064 48.2667 431.664 48.8V49.6C432.797 49.6667 433.597 50.0667 434.064 50.8C434.597 51.4667 434.864 52.3 434.864 53.3V59.3H430.764V53.2C430.764 51.8 430.064 51.1 428.664 51.1H423.664V59.3H419.664ZM423.664 47.5H428.264C429.397 47.5 430.231 47.1667 430.764 46.5C431.297 45.7667 431.564 44.9667 431.564 44.1C431.564 43.1667 431.297 42.4 430.764 41.8C430.231 41.1333 429.397 40.8 428.264 40.8H423.664V47.5Z" fill="white"/>
<circle cx="327" cy="36" r="10" fill="#1F2A40"/>
<path d="M326.528 17L328.361 26.8871L335.655 19.9656L331.326 29.0417L341.296 27.7296L332.459 32.528L341.296 37.3264L331.326 36.0142L335.655 45.0904L328.361 38.1688L326.528 48.0559L324.695 38.1688L317.401 45.0904L321.73 36.0142L311.76 37.3264L320.597 32.528L311.76 27.7296L321.73 29.0417L317.401 19.9656L324.695 26.8871L326.528 17Z" fill="url(#paint0_linear_17_208)"/>
</g>
<defs>
<filter id="filter0_dddd_17_208" x="0.299988" y="8" width="495.564" height="260.4" filterUnits="userSpaceOnUse" color-interpolation-filters="sRGB">
<feFlood flood-opacity="0" result="BackgroundImageFix"/>
<feColorMatrix in="SourceAlpha" type="matrix" values="0 0 0 0 0 0 0 0 0 0 0 0 0 0 0 0 0 0 127 0" result="hardAlpha"/>
<feOffset dy="8"/>
<feGaussianBlur stdDeviation="8.5"/>
<feColorMatrix type="matrix" values="0 0 0 0 0.419608 0 0 0 0 0.419608 0 0 0 0 0.419608 0 0 0 0.1 0"/>
<feBlend mode="normal" in2="BackgroundImageFix" result="effect1_dropShadow_17_208"/>
<feColorMatrix in="SourceAlpha" type="matrix" values="0 0 0 0 0 0 0 0 0 0 0 0 0 0 0 0 0 0 127 0" result="hardAlpha"/>
<feOffset dy="30"/>
<feGaussianBlur stdDeviation="15"/>
<feColorMatrix type="matrix" values="0 0 0 0 0.419608 0 0 0 0 0.419608 0 0 0 0 0.419608 0 0 0 0.09 0"/>
<feBlend mode="normal" in2="effect1_dropShadow_17_208" result="effect2_dropShadow_17_208"/>
<feColorMatrix in="SourceAlpha" type="matrix" values="0 0 0 0 0 0 0 0 0 0 0 0 0 0 0 0 0 0 127 0" result="hardAlpha"/>
<feOffset dy="68"/>
<feGaussianBlur stdDeviation="20.5"/>
<feColorMatrix type="matrix" values="0 0 0 0 0.419608 0 0 0 0 0.419608 0 0 0 0 0.419608 0 0 0 0.05 0"/>
<feBlend mode="normal" in2="effect2_dropShadow_17_208" result="effect3_dropShadow_17_208"/>
<feColorMatrix in="SourceAlpha" type="matrix" values="0 0 0 0 0 0 0 0 0 0 0 0 0 0 0 0 0 0 127 0" result="hardAlpha"/>
<feOffset dy="120"/>
<feGaussianBlur stdDeviation="24"/>
<feColorMatrix type="matrix" values="0 0 0 0 0.419608 0 0 0 0 0.419608 0 0 0 0 0.419608 0 0 0 0.01 0"/>
<feBlend mode="normal" in2="effect3_dropShadow_17_208" result="effect4_dropShadow_17_208"/>
<feBlend mode="normal" in="SourceGraphic" in2="effect4_dropShadow_17_208" result="shape"/>
</filter>
<linearGradient id="paint0_linear_17_208" x1="326.225" y1="16.0073" x2="327" y2="48" gradientUnits="userSpaceOnUse">
<stop offset="0.203799" stop-color="#9747FF"/>
<stop offset="0.581057" stop-color="#D941FF"/>
</linearGradient>
</defs>
</svg>
