<svg width="488" height="256" viewBox="0 0 488 256" fill="none" xmlns="http://www.w3.org/2000/svg">
<g filter="url(#filter0_dddd_17_220)">
<path d="M54.6 99L44.3 29H55.1L63.5 91.7H65.1L75.9 29H94.8L105.6 91.7H107.2L115.5 29H126.3L116 99H97.1L86.1 35.4H84.5L73.6 99H54.6ZM159.395 100.4C154.462 100.4 150.062 99.4 146.195 97.4C142.395 95.3333 139.395 92.4 137.195 88.6C134.995 84.8 133.895 80.3 133.895 75.1V73.6C133.895 68.4 134.995 63.9333 137.195 60.2C139.395 56.4 142.395 53.4667 146.195 51.4C150.062 49.3333 154.462 48.3 159.395 48.3C164.329 48.3 168.729 49.3333 172.595 51.4C176.462 53.4667 179.495 56.4 181.695 60.2C183.895 63.9333 184.995 68.4 184.995 73.6V75.1C184.995 80.3 183.895 84.8 181.695 88.6C179.495 92.4 176.462 95.3333 172.595 97.4C168.729 99.4 164.329 100.4 159.395 100.4ZM159.395 91.2C163.929 91.2 167.595 89.7667 170.395 86.9C173.262 83.9667 174.695 79.9333 174.695 74.8V73.9C174.695 68.7667 173.295 64.7667 170.495 61.9C167.695 58.9667 163.995 57.5 159.395 57.5C154.929 57.5 151.262 58.9667 148.395 61.9C145.595 64.7667 144.195 68.7667 144.195 73.9V74.8C144.195 79.9333 145.595 83.9667 148.395 86.9C151.262 89.7667 154.929 91.2 159.395 91.2ZM197.819 99V49.7H207.919V55.5H209.519C210.319 53.4333 211.585 51.9333 213.319 51C215.119 50 217.319 49.5 219.919 49.5H225.819V58.8H219.519C216.185 58.8 213.452 59.7333 211.319 61.6C209.185 63.4 208.119 66.2 208.119 70V99H197.819ZM236.491 99V29H246.791V68.9H248.391L267.791 49.7H281.491L256.591 73.6L282.291 99H268.691L248.391 78.5H246.791V99H236.491ZM291.569 99V29H301.869V99H291.569ZM317.155 99V49.7H327.455V99H317.155ZM322.355 43C320.355 43 318.655 42.3667 317.255 41.1C315.921 39.7667 315.255 38.0667 315.255 36C315.255 33.9333 315.921 32.2667 317.255 31C318.655 29.6667 320.355 29 322.355 29C324.421 29 326.121 29.6667 327.455 31C328.788 32.2667 329.455 33.9333 329.455 36C329.455 38.0667 328.788 39.7667 327.455 41.1C326.121 42.3667 324.421 43 322.355 43ZM342.741 99V49.7H352.841V57.1H354.441C355.374 55.1 357.041 53.2333 359.441 51.5C361.841 49.7667 365.407 48.9 370.141 48.9C373.874 48.9 377.174 49.7333 380.041 51.4C382.974 53.0667 385.274 55.4333 386.941 58.5C388.607 61.5 389.441 65.1333 389.441 69.4V99H379.141V70.2C379.141 65.9333 378.074 62.8 375.941 60.8C373.807 58.7333 370.874 57.7 367.141 57.7C362.874 57.7 359.441 59.1 356.841 61.9C354.307 64.7 353.041 68.7667 353.041 74.1V99H342.741ZM422.864 69.2C418.864 69.2 415.264 68.3333 412.064 66.6C408.931 64.8 406.431 62.3333 404.564 59.2C402.764 56.0667 401.864 52.4667 401.864 48.4C401.864 44.3333 402.764 40.7333 404.564 37.6C406.431 34.4667 408.931 32.0333 412.064 30.3C415.264 28.5 418.864 27.6 422.864 27.6C426.864 27.6 430.431 28.5 433.564 30.3C436.764 32.0333 439.264 34.4667 441.064 37.6C442.931 40.7333 443.864 44.3333 443.864 48.4C443.864 52.4667 442.931 56.0667 441.064 59.2C439.264 62.3333 436.764 64.8 433.564 66.6C430.431 68.3333 426.864 69.2 422.864 69.2ZM422.864 65.1C427.931 65.1 431.964 63.6 434.964 60.6C438.031 57.5333 439.564 53.4667 439.564 48.4C439.564 43.3333 438.031 39.3 434.964 36.3C431.964 33.2333 427.931 31.7 422.864 31.7C417.797 31.7 413.731 33.2333 410.664 36.3C407.597 39.3 406.064 43.3333 406.064 48.4C406.064 53.4667 407.597 57.5333 410.664 60.6C413.731 63.6 417.797 65.1 422.864 65.1ZM415.664 59.3V37.1H424.164C426.631 37.1 428.497 37.7 429.764 38.9C431.031 40.1 431.664 41.5333 431.664 43.2C431.664 44.4667 431.331 45.6 430.664 46.6C430.064 47.5333 429.064 48.2667 427.664 48.8V49.6C428.797 49.6667 429.597 50.0667 430.064 50.8C430.597 51.4667 430.864 52.3 430.864 53.3V59.3H426.764V53.2C426.764 51.8 426.064 51.1 424.664 51.1H419.664V59.3H415.664ZM419.664 47.5H424.264C425.397 47.5 426.231 47.1667 426.764 46.5C427.297 45.7667 427.564 44.9667 427.564 44.1C427.564 43.1667 427.297 42.4 426.764 41.8C426.231 41.1333 425.397 40.8 424.264 40.8H419.664V47.5Z" fill="#1F2A40"/>
<circle cx="323" cy="36" r="10" fill="white"/>
<path d="M322.528 17L324.361 26.8871L331.655 19.9656L327.326 29.0417L337.296 27.7296L328.459 32.528L337.296 37.3264L327.326 36.0142L331.655 45.0904L324.361 38.1688L322.528 48.0559L320.695 38.1688L313.401 45.0904L317.73 36.0142L307.76 37.3264L316.597 32.528L307.76 27.7296L317.73 29.0417L313.401 19.9656L320.695 26.8871L322.528 17Z" fill="url(#paint0_linear_17_220)"/>
</g>
<defs>
<filter id="filter0_dddd_17_220" x="0.299988" y="9" width="487.564" height="246.4" filterUnits="userSpaceOnUse" color-interpolation-filters="sRGB">
<feFlood flood-opacity="0" result="BackgroundImageFix"/>
<feColorMatrix in="SourceAlpha" type="matrix" values="0 0 0 0 0 0 0 0 0 0 0 0 0 0 0 0 0 0 127 0" result="hardAlpha"/>
<feOffset dy="7"/>
<feGaussianBlur stdDeviation="7.5"/>
<feColorMatrix type="matrix" values="0 0 0 0 0.411765 0 0 0 0 0.411765 0 0 0 0 0.411765 0 0 0 0.1 0"/>
<feBlend mode="normal" in2="BackgroundImageFix" result="effect1_dropShadow_17_220"/>
<feColorMatrix in="SourceAlpha" type="matrix" values="0 0 0 0 0 0 0 0 0 0 0 0 0 0 0 0 0 0 127 0" result="hardAlpha"/>
<feOffset dy="28"/>
<feGaussianBlur stdDeviation="14"/>
<feColorMatrix type="matrix" values="0 0 0 0 0.411765 0 0 0 0 0.411765 0 0 0 0 0.411765 0 0 0 0.09 0"/>
<feBlend mode="normal" in2="effect1_dropShadow_17_220" result="effect2_dropShadow_17_220"/>
<feColorMatrix in="SourceAlpha" type="matrix" values="0 0 0 0 0 0 0 0 0 0 0 0 0 0 0 0 0 0 127 0" result="hardAlpha"/>
<feOffset dy="63"/>
<feGaussianBlur stdDeviation="19"/>
<feColorMatrix type="matrix" values="0 0 0 0 0.411765 0 0 0 0 0.411765 0 0 0 0 0.411765 0 0 0 0.05 0"/>
<feBlend mode="normal" in2="effect2_dropShadow_17_220" result="effect3_dropShadow_17_220"/>
<feColorMatrix in="SourceAlpha" type="matrix" values="0 0 0 0 0 0 0 0 0 0 0 0 0 0 0 0 0 0 127 0" result="hardAlpha"/>
<feOffset dy="111"/>
<feGaussianBlur stdDeviation="22"/>
<feColorMatrix type="matrix" values="0 0 0 0 0.411765 0 0 0 0 0.411765 0 0 0 0 0.411765 0 0 0 0.01 0"/>
<feBlend mode="normal" in2="effect3_dropShadow_17_220" result="effect4_dropShadow_17_220"/>
<feBlend mode="normal" in="SourceGraphic" in2="effect4_dropShadow_17_220" result="shape"/>
</filter>
<linearGradient id="paint0_linear_17_220" x1="322.528" y1="17" x2="322.528" y2="48.0559" gradientUnits="userSpaceOnUse">
<stop offset="0.236667" stop-color="#9747FF"/>
<stop offset="0.756667" stop-color="#D941FF"/>
</linearGradient>
</defs>
</svg>
