<svg width="487" height="128" viewBox="0 0 487 128" fill="none" xmlns="http://www.w3.org/2000/svg">
<path d="M13.6 99L3.3 29H14.1L22.5 91.7H24.1L34.9 29H53.8L64.6 91.7H66.2L74.5 29H85.3L75 99H56.1L45.1 35.4H43.5L32.6 99H13.6ZM118.395 100.4C113.462 100.4 109.062 99.4 105.195 97.4C101.395 95.3333 98.3953 92.4 96.1953 88.6C93.9953 84.8 92.8953 80.3 92.8953 75.1V73.6C92.8953 68.4 93.9953 63.9333 96.1953 60.2C98.3953 56.4 101.395 53.4667 105.195 51.4C109.062 49.3333 113.462 48.3 118.395 48.3C123.329 48.3 127.729 49.3333 131.595 51.4C135.462 53.4667 138.495 56.4 140.695 60.2C142.895 63.9333 143.995 68.4 143.995 73.6V75.1C143.995 80.3 142.895 84.8 140.695 88.6C138.495 92.4 135.462 95.3333 131.595 97.4C127.729 99.4 123.329 100.4 118.395 100.4ZM118.395 91.2C122.929 91.2 126.595 89.7667 129.395 86.9C132.262 83.9667 133.695 79.9333 133.695 74.8V73.9C133.695 68.7667 132.295 64.7667 129.495 61.9C126.695 58.9667 122.995 57.5 118.395 57.5C113.929 57.5 110.262 58.9667 107.395 61.9C104.595 64.7667 103.195 68.7667 103.195 73.9V74.8C103.195 79.9333 104.595 83.9667 107.395 86.9C110.262 89.7667 113.929 91.2 118.395 91.2ZM156.819 99V49.7H166.919V55.5H168.519C169.319 53.4333 170.585 51.9333 172.319 51C174.119 50 176.319 49.5 178.919 49.5H184.819V58.8H178.519C175.185 58.8 172.452 59.7333 170.319 61.6C168.185 63.4 167.119 66.2 167.119 70V99H156.819ZM195.491 99V29H205.791V68.9H207.391L226.791 49.7H240.491L215.591 73.6L241.291 99H227.691L207.391 78.5H205.791V99H195.491ZM274.069 100.4C268.802 100.4 264.135 99.4667 260.069 97.6C256.002 95.7333 252.802 93 250.469 89.4C248.202 85.7333 247.069 81.3 247.069 76.1V73.6H257.769V76.1C257.769 81.0333 259.235 84.7333 262.169 87.2C265.169 89.6667 269.135 90.9 274.069 90.9C279.069 90.9 282.835 89.8667 285.369 87.8C287.902 85.6667 289.169 82.9333 289.169 79.6C289.169 77.4 288.569 75.6 287.369 74.2C286.169 72.8 284.469 71.7 282.269 70.9C280.069 70.0333 277.435 69.2333 274.369 68.5L270.669 67.6C266.202 66.5333 262.302 65.2333 258.969 63.7C255.702 62.1 253.169 60 251.369 57.4C249.569 54.8 248.669 51.4667 248.669 47.4C248.669 43.2667 249.669 39.7333 251.669 36.8C253.735 33.8667 256.569 31.6 260.169 30C263.769 28.4 268.002 27.6 272.869 27.6C277.735 27.6 282.069 28.4333 285.869 30.1C289.735 31.7667 292.769 34.2333 294.969 37.5C297.169 40.7667 298.269 44.8667 298.269 49.8V53.4H287.569V49.8C287.569 46.8 286.935 44.3667 285.669 42.5C284.469 40.6333 282.769 39.2667 280.569 38.4C278.369 37.5333 275.802 37.1 272.869 37.1C268.602 37.1 265.269 38 262.869 39.8C260.535 41.5333 259.369 43.9667 259.369 47.1C259.369 49.2333 259.869 51 260.869 52.4C261.935 53.7333 263.469 54.8333 265.469 55.7C267.469 56.5667 269.969 57.3333 272.969 58L276.669 58.9C281.202 59.9 285.202 61.2 288.669 62.8C292.135 64.3333 294.869 66.4333 296.869 69.1C298.869 71.7667 299.869 75.2 299.869 79.4C299.869 83.6 298.802 87.2667 296.669 90.4C294.602 93.5333 291.635 96 287.769 97.8C283.902 99.5333 279.335 100.4 274.069 100.4ZM317.206 119V110H344.706C346.573 110 347.506 109 347.506 107V91.8H345.906C345.306 93.1333 344.373 94.4333 343.106 95.7C341.906 96.9 340.273 97.9 338.206 98.7C336.14 99.5 333.54 99.9 330.406 99.9C326.673 99.9 323.34 99.0667 320.406 97.4C317.473 95.7333 315.173 93.3667 313.506 90.3C311.84 87.2333 311.006 83.6 311.006 79.4V49.7H321.306V78.6C321.306 82.8667 322.373 86.0333 324.506 88.1C326.64 90.1 329.606 91.1 333.406 91.1C337.606 91.1 340.973 89.7 343.506 86.9C346.106 84.1 347.406 80.0333 347.406 74.7V49.7H357.706V109.1C357.706 112.1 356.806 114.5 355.006 116.3C353.273 118.1 350.873 119 347.806 119H317.206ZM372.932 99V49.7H383.032V57.1H384.632C385.565 55.1 387.232 53.2333 389.632 51.5C392.032 49.7667 395.599 48.9 400.332 48.9C404.065 48.9 407.365 49.7333 410.232 51.4C413.165 53.0667 415.465 55.4333 417.132 58.5C418.799 61.5 419.632 65.1333 419.632 69.4V99H409.332V70.2C409.332 65.9333 408.265 62.8 406.132 60.8C403.999 58.7333 401.065 57.7 397.332 57.7C393.065 57.7 389.632 59.1 387.032 61.9C384.499 64.7 383.232 68.7667 383.232 74.1V99H372.932ZM457.355 100.4C452.622 100.4 448.322 99.4 444.455 97.4C440.655 95.4 437.622 92.5 435.355 88.7C433.155 84.9 432.055 80.3333 432.055 75V73.7C432.055 68.3667 433.155 63.8333 435.355 60.1C437.622 56.3 440.655 53.4 444.455 51.4C448.322 49.3333 452.622 48.3 457.355 48.3C462.089 48.3 466.122 49.1667 469.455 50.9C472.789 52.6333 475.455 54.9333 477.455 57.8C479.522 60.6667 480.855 63.8333 481.455 67.3L471.455 69.4C471.122 67.2 470.422 65.2 469.355 63.4C468.289 61.6 466.789 60.1667 464.855 59.1C462.922 58.0333 460.489 57.5 457.555 57.5C454.689 57.5 452.089 58.1667 449.755 59.5C447.489 60.7667 445.689 62.6333 444.355 65.1C443.022 67.5 442.355 70.4333 442.355 73.9V74.8C442.355 78.2667 443.022 81.2333 444.355 83.7C445.689 86.1667 447.489 88.0333 449.755 89.3C452.089 90.5667 454.689 91.2 457.555 91.2C461.889 91.2 465.189 90.1 467.455 87.9C469.722 85.6333 471.155 82.7667 471.755 79.3L481.755 81.6C480.955 85 479.522 88.1333 477.455 91C475.455 93.8667 472.789 96.1667 469.455 97.9C466.122 99.5667 462.089 100.4 457.355 100.4Z" fill="white"/>
<circle cx="282" cy="35" r="10" fill="url(#paint0_linear_17_205)"/>
<defs>
<linearGradient id="paint0_linear_17_205" x1="282" y1="25" x2="282" y2="45" gradientUnits="userSpaceOnUse">
<stop offset="0.236667" stop-color="#9747FF"/>
<stop offset="0.756667" stop-color="#D941FF"/>
</linearGradient>
</defs>
</svg>
