<svg width="414" height="128" viewBox="0 0 414 128" fill="none" xmlns="http://www.w3.org/2000/svg">
<g filter="url(#filter0_dddd_1265_2104)">
<path d="M17.6 99L7.3 29H18.1L26.5 91.7H28.1L38.9 29H57.8L68.6 91.7H70.2L78.5 29H89.3L79 99H60.1L49.1 35.4H47.5L36.6 99H17.6ZM122.395 100.4C117.462 100.4 113.062 99.4 109.195 97.4C105.395 95.3333 102.395 92.4 100.195 88.6C97.9953 84.8 96.8953 80.3 96.8953 75.1V73.6C96.8953 68.4 97.9953 63.9333 100.195 60.2C102.395 56.4 105.395 53.4667 109.195 51.4C113.062 49.3333 117.462 48.3 122.395 48.3C127.329 48.3 131.729 49.3333 135.595 51.4C139.462 53.4667 142.495 56.4 144.695 60.2C146.895 63.9333 147.995 68.4 147.995 73.6V75.1C147.995 80.3 146.895 84.8 144.695 88.6C142.495 92.4 139.462 95.3333 135.595 97.4C131.729 99.4 127.329 100.4 122.395 100.4ZM122.395 91.2C126.929 91.2 130.595 89.7667 133.395 86.9C136.262 83.9667 137.695 79.9333 137.695 74.8V73.9C137.695 68.7667 136.295 64.7667 133.495 61.9C130.695 58.9667 126.995 57.5 122.395 57.5C117.929 57.5 114.262 58.9667 111.395 61.9C108.595 64.7667 107.195 68.7667 107.195 73.9V74.8C107.195 79.9333 108.595 83.9667 111.395 86.9C114.262 89.7667 117.929 91.2 122.395 91.2ZM160.819 99V49.7H170.919V55.5H172.519C173.319 53.4333 174.585 51.9333 176.319 51C178.119 50 180.319 49.5 182.919 49.5H188.819V58.8H182.519C179.185 58.8 176.452 59.7333 174.319 61.6C172.185 63.4 171.119 66.2 171.119 70V99H160.819ZM199.491 99V29H209.791V68.9H211.391L230.791 49.7H244.491L219.591 73.6L245.291 99H231.691L211.391 78.5H209.791V99H199.491ZM254.569 99V29H264.869V99H254.569ZM280.155 99V49.7H290.455V99H280.155ZM285.355 43C283.355 43 281.655 42.3667 280.255 41.1C278.921 39.7667 278.255 38.0667 278.255 36C278.255 33.9333 278.921 32.2667 280.255 31C281.655 29.6667 283.355 29 285.355 29C287.421 29 289.121 29.6667 290.455 31C291.788 32.2667 292.455 33.9333 292.455 36C292.455 38.0667 291.788 39.7667 290.455 41.1C289.121 42.3667 287.421 43 285.355 43ZM305.741 99V49.7H315.841V57.1H317.441C318.374 55.1 320.041 53.2333 322.441 51.5C324.841 49.7667 328.407 48.9 333.141 48.9C336.874 48.9 340.174 49.7333 343.041 51.4C345.974 53.0667 348.274 55.4333 349.941 58.5C351.607 61.5 352.441 65.1333 352.441 69.4V99H342.141V70.2C342.141 65.9333 341.074 62.8 338.941 60.8C336.807 58.7333 333.874 57.7 330.141 57.7C325.874 57.7 322.441 59.1 319.841 61.9C317.307 64.7 316.041 68.7667 316.041 74.1V99H305.741ZM385.864 69.2C381.864 69.2 378.264 68.3333 375.064 66.6C371.931 64.8 369.431 62.3333 367.564 59.2C365.764 56.0667 364.864 52.4667 364.864 48.4C364.864 44.3333 365.764 40.7333 367.564 37.6C369.431 34.4667 371.931 32.0333 375.064 30.3C378.264 28.5 381.864 27.6 385.864 27.6C389.864 27.6 393.431 28.5 396.564 30.3C399.764 32.0333 402.264 34.4667 404.064 37.6C405.931 40.7333 406.864 44.3333 406.864 48.4C406.864 52.4667 405.931 56.0667 404.064 59.2C402.264 62.3333 399.764 64.8 396.564 66.6C393.431 68.3333 389.864 69.2 385.864 69.2ZM385.864 65.1C390.931 65.1 394.964 63.6 397.964 60.6C401.031 57.5333 402.564 53.4667 402.564 48.4C402.564 43.3333 401.031 39.3 397.964 36.3C394.964 33.2333 390.931 31.7 385.864 31.7C380.797 31.7 376.731 33.2333 373.664 36.3C370.597 39.3 369.064 43.3333 369.064 48.4C369.064 53.4667 370.597 57.5333 373.664 60.6C376.731 63.6 380.797 65.1 385.864 65.1ZM378.664 59.3V37.1H387.164C389.631 37.1 391.497 37.7 392.764 38.9C394.031 40.1 394.664 41.5333 394.664 43.2C394.664 44.4667 394.331 45.6 393.664 46.6C393.064 47.5333 392.064 48.2667 390.664 48.8V49.6C391.797 49.6667 392.597 50.0667 393.064 50.8C393.597 51.4667 393.864 52.3 393.864 53.3V59.3H389.764V53.2C389.764 51.8 389.064 51.1 387.664 51.1H382.664V59.3H378.664ZM382.664 47.5H387.264C388.397 47.5 389.231 47.1667 389.764 46.5C390.297 45.7667 390.564 44.9667 390.564 44.1C390.564 43.1667 390.297 42.4 389.764 41.8C389.231 41.1333 388.397 40.8 387.264 40.8H382.664V47.5Z" fill="#1F2A40"/>
<circle cx="286" cy="36" r="10" fill="white"/>
<path d="M285.528 17L287.361 26.8871L294.655 19.9656L290.326 29.0417L300.296 27.7296L291.459 32.528L300.296 37.3264L290.326 36.0142L294.655 45.0904L287.361 38.1688L285.528 48.0559L283.695 38.1688L276.401 45.0904L280.73 36.0142L270.76 37.3264L279.597 32.528L270.76 27.7296L280.73 29.0417L276.401 19.9656L283.695 26.8871L285.528 17Z" fill="url(#paint0_linear_1265_2104)"/>
</g>
<defs>
<filter id="filter0_dddd_1265_2104" x="0.300049" y="16" width="413.564" height="107.4" filterUnits="userSpaceOnUse" color-interpolation-filters="sRGB">
<feFlood flood-opacity="0" result="BackgroundImageFix"/>
<feColorMatrix in="SourceAlpha" type="matrix" values="0 0 0 0 0 0 0 0 0 0 0 0 0 0 0 0 0 0 127 0" result="hardAlpha"/>
<feOffset dy="1"/>
<feGaussianBlur stdDeviation="1"/>
<feColorMatrix type="matrix" values="0 0 0 0 0.411765 0 0 0 0 0.411765 0 0 0 0 0.411765 0 0 0 0.1 0"/>
<feBlend mode="normal" in2="BackgroundImageFix" result="effect1_dropShadow_1265_2104"/>
<feColorMatrix in="SourceAlpha" type="matrix" values="0 0 0 0 0 0 0 0 0 0 0 0 0 0 0 0 0 0 127 0" result="hardAlpha"/>
<feOffset dy="4"/>
<feGaussianBlur stdDeviation="2"/>
<feColorMatrix type="matrix" values="0 0 0 0 0.411765 0 0 0 0 0.411765 0 0 0 0 0.411765 0 0 0 0.09 0"/>
<feBlend mode="normal" in2="effect1_dropShadow_1265_2104" result="effect2_dropShadow_1265_2104"/>
<feColorMatrix in="SourceAlpha" type="matrix" values="0 0 0 0 0 0 0 0 0 0 0 0 0 0 0 0 0 0 127 0" result="hardAlpha"/>
<feOffset dy="9"/>
<feGaussianBlur stdDeviation="3"/>
<feColorMatrix type="matrix" values="0 0 0 0 0.411765 0 0 0 0 0.411765 0 0 0 0 0.411765 0 0 0 0.05 0"/>
<feBlend mode="normal" in2="effect2_dropShadow_1265_2104" result="effect3_dropShadow_1265_2104"/>
<feColorMatrix in="SourceAlpha" type="matrix" values="0 0 0 0 0 0 0 0 0 0 0 0 0 0 0 0 0 0 127 0" result="hardAlpha"/>
<feOffset dy="16"/>
<feGaussianBlur stdDeviation="3.5"/>
<feColorMatrix type="matrix" values="0 0 0 0 0.411765 0 0 0 0 0.411765 0 0 0 0 0.411765 0 0 0 0.01 0"/>
<feBlend mode="normal" in2="effect3_dropShadow_1265_2104" result="effect4_dropShadow_1265_2104"/>
<feBlend mode="normal" in="SourceGraphic" in2="effect4_dropShadow_1265_2104" result="shape"/>
</filter>
<linearGradient id="paint0_linear_1265_2104" x1="285.528" y1="17" x2="285.528" y2="48.0559" gradientUnits="userSpaceOnUse">
<stop offset="0.236667" stop-color="#9747FF"/>
<stop offset="0.756667" stop-color="#D941FF"/>
</linearGradient>
</defs>
</svg>
