<svg width="70" height="70" viewBox="0 0 70 70" fill="none" xmlns="http://www.w3.org/2000/svg">
<path d="M63.4672 46.4333L44.8005 12.8333C42.2922 8.31248 38.8214 5.83331 35.0005 5.83331C31.1797 5.83331 27.7089 8.31248 25.2005 12.8333L6.53388 46.4333C4.17138 50.7208 3.90888 54.8333 5.80471 58.0708C7.70055 61.3083 11.4339 63.0875 16.3339 63.0875H53.6672C58.5672 63.0875 62.3005 61.3083 64.1964 58.0708C66.0922 54.8333 65.8297 50.6916 63.4672 46.4333ZM32.813 26.25C32.813 25.0541 33.8047 24.0625 35.0005 24.0625C36.1964 24.0625 37.188 25.0541 37.188 26.25V40.8333C37.188 42.0291 36.1964 43.0208 35.0005 43.0208C33.8047 43.0208 32.813 42.0291 32.813 40.8333V26.25ZM37.0714 51.6541C36.9255 51.7708 36.7797 51.8875 36.6339 52.0041C36.4589 52.1208 36.2839 52.2083 36.1089 52.2666C35.9339 52.3541 35.7589 52.4125 35.5547 52.4416C35.3797 52.4708 35.1755 52.5 35.0005 52.5C34.8255 52.5 34.6214 52.4708 34.4172 52.4416C34.2422 52.4125 34.0672 52.3541 33.8922 52.2666C33.7172 52.2083 33.5422 52.1208 33.3672 52.0041C33.2214 51.8875 33.0755 51.7708 32.9297 51.6541C32.4047 51.1 32.0839 50.3416 32.0839 49.5833C32.0839 48.825 32.4047 48.0667 32.9297 47.5125C33.0755 47.3958 33.2214 47.2791 33.3672 47.1625C33.5422 47.0458 33.7172 46.9583 33.8922 46.9C34.0672 46.8125 34.2422 46.7542 34.4172 46.725C34.7964 46.6375 35.2047 46.6375 35.5547 46.725C35.7589 46.7542 35.9339 46.8125 36.1089 46.9C36.2839 46.9583 36.4589 47.0458 36.6339 47.1625C36.7797 47.2791 36.9255 47.3958 37.0714 47.5125C37.5964 48.0667 37.9172 48.825 37.9172 49.5833C37.9172 50.3416 37.5964 51.1 37.0714 51.6541Z" fill="url(#paint0_linear_337_2921)"/>
<defs>
<linearGradient id="paint0_linear_337_2921" x1="35.0005" y1="5.83331" x2="35.0005" y2="63.0875" gradientUnits="userSpaceOnUse">
<stop offset="0.236667" stop-color="#9747FF"/>
<stop offset="0.756667" stop-color="#D941FF"/>
</linearGradient>
</defs>
</svg>
