<svg width="17" height="18" viewBox="0 0 17 18" fill="none" xmlns="http://www.w3.org/2000/svg">
<g clip-path="url(#clip0_338_7361)">
<path d="M10.2342 6.0192L4.41317 11.8629C4.31203 11.9611 4.17683 12.016 4.03613 12.016C3.89543 12.016 3.76024 11.9611 3.65909 11.8629L0.748583 8.94107C0.664198 8.83785 0.621074 8.70682 0.627599 8.57344C0.634124 8.44007 0.689831 8.31391 0.783885 8.21948C0.877939 8.12506 1.00362 8.06914 1.13647 8.06259C1.26932 8.05604 1.39985 8.09933 1.50267 8.18404L4.03613 10.734L9.4801 5.26217C9.58292 5.17745 9.71345 5.13416 9.8463 5.14071C9.97915 5.14726 10.1048 5.20319 10.1989 5.29761C10.2929 5.39203 10.3486 5.5182 10.3552 5.65157C10.3617 5.78494 10.3186 5.91598 10.2342 6.0192ZM16.3198 5.26217C16.2195 5.16241 16.084 5.10645 15.9427 5.10645C15.8015 5.10645 15.666 5.16241 15.5657 5.26217L10.1217 10.734L8.95092 9.55865C8.85025 9.46709 8.71837 9.41789 8.58257 9.42125C8.44677 9.4246 8.31746 9.48026 8.22141 9.57668C8.12535 9.67311 8.06992 9.80293 8.06657 9.93926C8.06323 10.0756 8.11224 10.208 8.20345 10.309L9.74469 11.8629C9.84584 11.9611 9.98103 12.016 10.1217 12.016C10.2624 12.016 10.3976 11.9611 10.4988 11.8629L16.3198 6.0192C16.4192 5.91848 16.4749 5.78245 16.4749 5.64068C16.4749 5.49892 16.4192 5.36289 16.3198 5.26217Z" fill="black"/>
</g>
<defs>
<clipPath id="clip0_338_7361">
<rect width="16.9339" height="17" fill="white" transform="translate(0.0664062 0.0625)"/>
</clipPath>
</defs>
</svg>
